<svg width="34" height="31" viewBox="0 0 34 31" fill="none" xmlns="http://www.w3.org/2000/svg">
<path fill-rule="evenodd" clip-rule="evenodd" d="M12.5768 8.95925C12.5768 11.2926 10.3967 13.1838 7.70504 13.1838C5.01497 13.1838 2.83331 11.2926 2.83331 8.95925C2.83331 6.62728 5.01497 4.73605 7.70504 4.73605C10.3967 4.73605 12.5768 6.62728 12.5768 8.95925ZM30.0281 7.10896C31.2055 7.10896 32.1625 7.93859 32.1625 8.95926C32.1625 9.98129 31.2055 10.8109 30.0281 10.8109H20.7128C19.5338 10.8109 18.5768 9.98129 18.5768 8.95926C18.5768 7.93859 19.5338 7.10896 20.7128 7.10896H30.0281ZM4.96932 21.6068H14.2846C15.4636 21.6068 16.4206 22.4364 16.4206 23.4585C16.4206 24.4791 15.4636 25.3101 14.2846 25.3101H4.96932C3.79034 25.3101 2.83331 24.4791 2.83331 23.4585C2.83331 22.4364 3.79034 21.6068 4.96932 21.6068ZM27.2924 27.6316C29.984 27.6316 32.1641 25.7404 32.1641 23.4084C32.1641 21.075 29.984 19.1838 27.2924 19.1838C24.6023 19.1838 22.4207 21.075 22.4207 23.4084C22.4207 25.7404 24.6023 27.6316 27.2924 27.6316Z" fill="black"/>
</svg>
