<svg width="18" height="20" viewBox="0 0 18 20" fill="none" xmlns="http://www.w3.org/2000/svg">
<path fill-rule="evenodd" clip-rule="evenodd" d="M13.142 6.51596V7.67046C14.4338 8.07524 15.375 9.24919 15.375 10.6513V14.3685C15.375 16.1043 13.9415 17.5117 12.1742 17.5117H5.8266C4.05852 17.5117 2.625 16.1043 2.625 14.3685V10.6513C2.625 9.24919 3.56696 8.07524 4.85796 7.67046V6.51596C4.86559 4.27132 6.7175 2.45316 8.98857 2.45316C11.2901 2.45316 13.142 4.27132 13.142 6.51596ZM9.00379 3.76247C10.5509 3.76247 11.8083 4.99703 11.8083 6.5159V7.50804H6.19163V6.50094C6.19925 4.98955 7.45672 3.76247 9.00379 3.76247ZM9.66685 13.3367C9.66685 13.7033 9.36963 13.9951 8.9962 13.9951C8.63039 13.9951 8.33317 13.7033 8.33317 13.3367V11.6756C8.33317 11.3165 8.63039 11.0247 8.9962 11.0247C9.36963 11.0247 9.66685 11.3165 9.66685 11.6756V13.3367Z" fill="#AAAAAA"/>
</svg>
