<svg width="26" height="24" viewBox="0 0 26 24" fill="none" xmlns="http://www.w3.org/2000/svg">
<path fill-rule="evenodd" clip-rule="evenodd" d="M13.0001 1C6.54399 1 1.16675 5.86448 1.16675 12C1.16675 18.0414 6.36489 22.8357 12.6716 22.9958L12.6716 22.9959L12.6843 22.9961L12.9874 22.9999L12.9874 23H13.0001C19.444 23 24.8334 18.1468 24.8334 12C24.8334 5.86386 19.4447 1 13.0001 1ZM3.16675 12C3.16675 7.11552 7.49617 3 13.0001 3C18.4938 3 22.8334 7.11614 22.8334 12C22.8334 16.8914 18.4978 20.9969 13.0063 21L12.7162 20.9963C7.34579 20.8569 3.16675 16.8096 3.16675 12ZM10.8551 8C10.5409 8.3 10.5409 8.77 10.8659 9.06L14.0617 12L10.8659 14.94C10.5409 15.23 10.5409 15.71 10.8551 16C11.1801 16.3 11.6892 16.3 12.0034 16L15.7842 12.53C15.9359 12.39 16.0226 12.2 16.0226 12C16.0226 11.8 15.9359 11.61 15.7842 11.47L12.0034 8C11.8517 7.85 11.6459 7.78 11.4401 7.78C11.2234 7.78 11.0176 7.85 10.8551 8Z" fill="black"/>
</svg>
