<svg width="245" height="52" viewBox="0 0 245 52" fill="none" xmlns="http://www.w3.org/2000/svg">
<path d="M83.176 39V16.6H87.272V35.8H97.192V39H83.176ZM106.177 39.384C104.812 39.384 103.692 39.1707 102.817 38.744C101.942 38.296 101.292 37.7093 100.865 36.984C100.438 36.2587 100.225 35.4587 100.225 34.584C100.225 33.112 100.801 31.9173 101.953 31C103.105 30.0827 104.833 29.624 107.137 29.624H111.169V29.24C111.169 28.152 110.86 27.352 110.241 26.84C109.622 26.328 108.854 26.072 107.937 26.072C107.105 26.072 106.38 26.2747 105.761 26.68C105.142 27.064 104.758 27.64 104.609 28.408H100.609C100.716 27.256 101.1 26.2533 101.761 25.4C102.444 24.5467 103.318 23.896 104.385 23.448C105.452 22.9787 106.646 22.744 107.969 22.744C110.23 22.744 112.012 23.3093 113.313 24.44C114.614 25.5707 115.265 27.1707 115.265 29.24V39H111.777L111.393 36.44C110.924 37.2933 110.262 37.9973 109.409 38.552C108.577 39.1067 107.5 39.384 106.177 39.384ZM107.105 36.184C108.278 36.184 109.185 35.8 109.825 35.032C110.486 34.264 110.902 33.3147 111.073 32.184H107.585C106.497 32.184 105.718 32.3867 105.249 32.792C104.78 33.176 104.545 33.656 104.545 34.232C104.545 34.8507 104.78 35.3307 105.249 35.672C105.718 36.0133 106.337 36.184 107.105 36.184ZM119.174 39V15.96H123.27V29.56L128.902 23.128H133.766L127.27 30.36L134.822 39H129.702L123.27 31.032V39H119.174ZM143.761 39.384C142.161 39.384 140.742 39.0427 139.505 38.36C138.267 37.6773 137.297 36.7173 136.593 35.48C135.889 34.2427 135.537 32.8133 135.537 31.192C135.537 29.5493 135.878 28.088 136.561 26.808C137.265 25.528 138.225 24.536 139.441 23.832C140.678 23.1067 142.129 22.744 143.793 22.744C145.35 22.744 146.726 23.0853 147.921 23.768C149.115 24.4507 150.043 25.3893 150.705 26.584C151.387 27.7573 151.729 29.0693 151.729 30.52C151.729 30.7547 151.718 31 151.697 31.256C151.697 31.512 151.686 31.7787 151.665 32.056H139.601C139.686 33.2933 140.113 34.264 140.881 34.968C141.67 35.672 142.619 36.024 143.729 36.024C144.561 36.024 145.254 35.8427 145.809 35.48C146.385 35.096 146.811 34.6053 147.089 34.008H151.249C150.95 35.0107 150.449 35.928 149.745 36.76C149.062 37.5707 148.209 38.2107 147.185 38.68C146.182 39.1493 145.041 39.384 143.761 39.384ZM143.793 26.072C142.79 26.072 141.905 26.36 141.137 26.936C140.369 27.4907 139.878 28.344 139.665 29.496H147.569C147.505 28.4507 147.121 27.6187 146.417 27C145.713 26.3813 144.838 26.072 143.793 26.072ZM165.414 39.384C163.152 39.384 161.211 38.904 159.59 37.944C157.968 36.9627 156.72 35.608 155.846 33.88C154.971 32.1307 154.534 30.1147 154.534 27.832C154.534 25.5493 154.971 23.5333 155.846 21.784C156.72 20.0347 157.968 18.6693 159.59 17.688C161.211 16.7067 163.152 16.216 165.414 16.216C168.102 16.216 170.299 16.888 172.006 18.232C173.734 19.5547 174.811 21.4213 175.238 23.832H170.726C170.448 22.616 169.851 21.6667 168.934 20.984C168.038 20.28 166.843 19.928 165.35 19.928C163.28 19.928 161.659 20.632 160.486 22.04C159.312 23.448 158.726 25.3787 158.726 27.832C158.726 30.2853 159.312 32.216 160.486 33.624C161.659 35.0107 163.28 35.704 165.35 35.704C166.843 35.704 168.038 35.384 168.934 34.744C169.851 34.0827 170.448 33.176 170.726 32.024H175.238C174.811 34.328 173.734 36.1307 172.006 37.432C170.299 38.7333 168.102 39.384 165.414 39.384ZM186.384 39.384C184.848 39.384 183.461 39.032 182.224 38.328C181.008 37.624 180.037 36.6533 179.312 35.416C178.608 34.1573 178.256 32.7067 178.256 31.064C178.256 29.4213 178.618 27.9813 179.344 26.744C180.069 25.4853 181.04 24.504 182.256 23.8C183.493 23.096 184.88 22.744 186.416 22.744C187.93 22.744 189.296 23.096 190.512 23.8C191.749 24.504 192.72 25.4853 193.424 26.744C194.149 27.9813 194.512 29.4213 194.512 31.064C194.512 32.7067 194.149 34.1573 193.424 35.416C192.72 36.6533 191.749 37.624 190.512 38.328C189.274 39.032 187.898 39.384 186.384 39.384ZM186.384 35.832C187.45 35.832 188.378 35.4373 189.168 34.648C189.957 33.8373 190.352 32.6427 190.352 31.064C190.352 29.4853 189.957 28.3013 189.168 27.512C188.378 26.7013 187.461 26.296 186.416 26.296C185.328 26.296 184.389 26.7013 183.6 27.512C182.832 28.3013 182.448 29.4853 182.448 31.064C182.448 32.6427 182.832 33.8373 183.6 34.648C184.389 35.4373 185.317 35.832 186.384 35.832ZM203.646 39.384C202.28 39.384 201.16 39.1707 200.286 38.744C199.411 38.296 198.76 37.7093 198.334 36.984C197.907 36.2587 197.694 35.4587 197.694 34.584C197.694 33.112 198.27 31.9173 199.422 31C200.574 30.0827 202.302 29.624 204.606 29.624H208.638V29.24C208.638 28.152 208.328 27.352 207.71 26.84C207.091 26.328 206.323 26.072 205.406 26.072C204.574 26.072 203.848 26.2747 203.23 26.68C202.611 27.064 202.227 27.64 202.078 28.408H198.078C198.184 27.256 198.568 26.2533 199.23 25.4C199.912 24.5467 200.787 23.896 201.854 23.448C202.92 22.9787 204.115 22.744 205.438 22.744C207.699 22.744 209.48 23.3093 210.782 24.44C212.083 25.5707 212.734 27.1707 212.734 29.24V39H209.246L208.862 36.44C208.392 37.2933 207.731 37.9973 206.878 38.552C206.046 39.1067 204.968 39.384 203.646 39.384ZM204.574 36.184C205.747 36.184 206.654 35.8 207.294 35.032C207.955 34.264 208.371 33.3147 208.542 32.184H205.054C203.966 32.184 203.187 32.3867 202.718 32.792C202.248 33.176 202.014 33.656 202.014 34.232C202.014 34.8507 202.248 35.3307 202.718 35.672C203.187 36.0133 203.806 36.184 204.574 36.184ZM223.203 39.384C221.795 39.384 220.557 39.16 219.491 38.712C218.424 38.2427 217.571 37.6027 216.931 36.792C216.291 35.9813 215.907 35.0427 215.779 33.976H219.907C220.035 34.5947 220.376 35.128 220.931 35.576C221.507 36.0027 222.243 36.216 223.139 36.216C224.035 36.216 224.685 36.0347 225.091 35.672C225.517 35.3093 225.731 34.8933 225.731 34.424C225.731 33.7413 225.432 33.2827 224.835 33.048C224.237 32.792 223.405 32.5467 222.339 32.312C221.656 32.1627 220.963 31.9813 220.259 31.768C219.555 31.5547 218.904 31.288 218.307 30.968C217.731 30.6267 217.261 30.2 216.899 29.688C216.536 29.1547 216.355 28.504 216.355 27.736C216.355 26.328 216.909 25.144 218.019 24.184C219.149 23.224 220.728 22.744 222.755 22.744C224.632 22.744 226.125 23.1813 227.235 24.056C228.365 24.9307 229.037 26.136 229.251 27.672H225.379C225.144 26.4987 224.259 25.912 222.723 25.912C221.955 25.912 221.357 26.0613 220.931 26.36C220.525 26.6587 220.323 27.032 220.323 27.48C220.323 27.9493 220.632 28.3227 221.251 28.6C221.869 28.8773 222.691 29.1333 223.715 29.368C224.824 29.624 225.837 29.912 226.755 30.232C227.693 30.5307 228.44 30.9893 228.995 31.608C229.549 32.2053 229.827 33.0693 229.827 34.2C229.848 35.1813 229.592 36.0667 229.059 36.856C228.525 37.6453 227.757 38.264 226.755 38.712C225.752 39.16 224.568 39.384 223.203 39.384ZM240.027 39C238.363 39 237.03 38.5947 236.027 37.784C235.024 36.9733 234.523 35.5333 234.523 33.464V26.552H231.803V23.128H234.523L235.003 18.872H238.619V23.128H242.907V26.552H238.619V33.496C238.619 34.264 238.779 34.7973 239.099 35.096C239.44 35.3733 240.016 35.512 240.827 35.512H242.811V39H240.027Z" fill="black"/>
<path d="M51 35C51 37.2325 50.5861 39.4431 49.7821 41.5056C48.978 43.5682 47.7994 45.4422 46.3137 47.0208C44.828 48.5994 43.0641 49.8516 41.1229 50.706C39.1817 51.5603 37.1011 52 35 52C32.8988 52 30.8183 51.5603 28.8771 50.706C26.9359 49.8516 25.172 48.5994 23.6863 47.0208C22.2006 45.4422 21.022 43.5682 20.2179 41.5056C19.4139 39.4431 19 37.2325 19 35L35 35H51Z" fill="black"/>
<path d="M13.8564 36.7128C10.1815 34.5911 7.49988 31.0964 6.40159 26.9975C5.3033 22.8986 5.87827 18.5314 8 14.8564C10.1217 11.1815 13.6164 8.49988 17.7153 7.40159C21.8142 6.3033 26.1815 6.87827 29.8564 9L21.8564 22.8564L13.8564 36.7128Z" fill="#017865"/>
<path d="M39.5567 8.49802C43.1522 6.2442 47.4957 5.51099 51.6318 6.45967C55.7678 7.40835 59.3576 9.96122 61.6114 13.5567C63.8653 17.1521 64.5985 21.4957 63.6498 25.6317C62.7011 29.7678 60.1482 33.3576 56.5528 35.6114L48.0548 22.0547L39.5567 8.49802Z" fill="#FE9502"/>
</svg>
