<svg width="16" height="12" viewBox="0 0 16 12" fill="none" xmlns="http://www.w3.org/2000/svg">
<path fill-rule="evenodd" clip-rule="evenodd" d="M4.87793 5.99999C4.87793 7.59999 6.275 8.90181 7.99988 8.90181C9.71695 8.90181 11.114 7.59999 11.114 5.99999C11.114 4.39272 9.71695 3.0909 7.99988 3.0909C6.275 3.0909 4.87793 4.39272 4.87793 5.99999ZM12.5893 1.53455C13.9551 2.52364 15.118 3.97091 15.9532 5.78182C16.0156 5.92 16.0156 6.08 15.9532 6.21091C14.2829 9.83273 11.3093 12 8 12H7.9922C4.69073 12 1.71707 9.83273 0.0468293 6.21091C-0.0156098 6.08 -0.0156098 5.92 0.0468293 5.78182C1.71707 2.16 4.69073 0 7.9922 0H8C9.65463 0 11.2234 0.538182 12.5893 1.53455ZM8.00054 7.80934C9.0698 7.80934 9.94395 6.9948 9.94395 5.99843C9.94395 4.9948 9.0698 4.18025 8.00054 4.18025C7.90688 4.18025 7.81322 4.18752 7.72737 4.20207C7.69615 5.00207 6.99371 5.64207 6.12737 5.64207H6.08834C6.06493 5.75843 6.04932 5.8748 6.04932 5.99843C6.04932 6.9948 6.92346 7.80934 8.00054 7.80934Z" fill="black"/>
</svg>
