<svg width="16" height="12" viewBox="0 0 16 12" fill="none" xmlns="http://www.w3.org/2000/svg">
<path fill-rule="evenodd" clip-rule="evenodd" d="M6.24258 8.29592C6.74218 8.59475 7.35106 8.77544 7.99898 8.77544C9.71635 8.77544 11.1137 7.53148 11.1137 6.0026C11.1137 5.42579 10.9107 4.88373 10.575 4.43897L9.72416 5.19646C9.86467 5.43274 9.94273 5.71072 9.94273 6.0026C9.94273 6.95468 9.06843 7.73302 7.99898 7.73302C7.67112 7.73302 7.35887 7.66352 7.09346 7.53843L6.24258 8.29592ZM13.143 2.1526C14.2749 3.06993 15.2351 4.30694 15.9532 5.79412C16.0157 5.92616 16.0157 6.07905 15.9532 6.20414C14.2827 9.66498 11.3085 11.7359 7.99869 11.7359H7.99089C6.48429 11.7359 5.04013 11.2981 3.76772 10.4989L2.25331 11.8471C2.13621 11.9514 1.9879 12 1.83958 12C1.69126 12 1.53514 11.9514 1.42585 11.8471C1.23069 11.6734 1.19947 11.3954 1.35559 11.1939L1.37901 11.1661L12.9244 0.887795L12.9244 0.887791C12.94 0.873893 12.9557 0.859996 12.9635 0.846098C12.9791 0.832199 12.9947 0.8183 13.0025 0.804401L13.7363 0.151151C13.9705 -0.0503837 14.3374 -0.0503837 14.5637 0.151151C14.7979 0.352686 14.7979 0.68626 14.5637 0.887795L13.143 2.1526ZM4.87889 6.00533C4.87889 6.18601 4.90231 6.3667 4.93354 6.53349L2.04523 9.10479C1.26461 8.29865 0.585467 7.32573 0.0468374 6.20686C-0.0156125 6.08177 -0.0156125 5.92888 0.0468374 5.79684C1.71737 2.33601 4.69154 0.272012 7.99358 0.272012H8.00138C9.11768 0.272012 10.2027 0.508294 11.2019 0.953061L8.59466 3.27418C8.40731 3.24639 8.20435 3.22554 8.00138 3.22554C6.27621 3.22554 4.87889 4.46949 4.87889 6.00533Z" fill="black"/>
</svg>
