<svg width="20" height="20" viewBox="0 0 20 20" fill="none" xmlns="http://www.w3.org/2000/svg">
<path fill-rule="evenodd" clip-rule="evenodd" d="M16.9059 4.36914C17.2301 4.36914 17.5 4.6383 17.5 4.9808V5.29746C17.5 5.63162 17.2301 5.90912 16.9059 5.90912H3.09488C2.76988 5.90912 2.5 5.63162 2.5 5.29746V4.9808C2.5 4.6383 2.76988 4.36914 3.09488 4.36914H5.52464C6.01821 4.36914 6.44775 4.01831 6.55879 3.52331L6.68603 2.95498C6.88378 2.18083 7.53458 1.66666 8.27939 1.66666H11.7206C12.4573 1.66666 13.1154 2.18083 13.3059 2.91415L13.442 3.52248C13.5522 4.01831 13.9818 4.36914 14.4762 4.36914H16.9059ZM15.6715 15.945C15.9252 13.5809 16.3693 7.96427 16.3693 7.9076C16.3855 7.73594 16.3296 7.57344 16.2186 7.44261C16.0994 7.32011 15.9487 7.24761 15.7825 7.24761H4.22376C4.05681 7.24761 3.89796 7.32011 3.78774 7.44261C3.67589 7.57344 3.62078 7.73594 3.62889 7.9076C3.63037 7.91801 3.64631 8.11585 3.67295 8.44661C3.79131 9.91598 4.12097 14.0085 4.33399 15.945C4.48473 17.3717 5.42081 18.2683 6.77671 18.3008C7.82302 18.325 8.90093 18.3333 10.0032 18.3333C11.0414 18.3333 12.0958 18.325 13.1745 18.3008C14.5774 18.2767 15.5127 17.3958 15.6715 15.945Z" fill="black"/>
</svg>
