<svg width="42" height="42" viewBox="0 0 42 42" fill="none" xmlns="http://www.w3.org/2000/svg">
<path fill-rule="evenodd" clip-rule="evenodd" d="M21.6799 0.603423C22.0126 0.304797 22.4527 0.148265 22.9031 0.168345C32.4257 0.453407 40.384 7.36621 41.8264 16.6054C41.8356 16.6606 41.8356 16.7169 41.8264 16.772C41.8575 17.2092 41.7097 17.6405 41.4158 17.9705C41.122 18.3005 40.7062 18.502 40.2605 18.5305L24.2615 19.5856C23.7325 19.6325 23.2077 19.4584 22.8163 19.106C22.4248 18.7537 22.2029 18.2558 22.2051 17.7346L21.1297 2.01937V1.76023C21.1493 1.31824 21.3472 0.902049 21.6799 0.603423ZM20.5826 23.6949L34.4496 22.8064L34.5439 22.8434C35.1394 22.8532 35.7065 23.0946 36.1205 23.5147C36.5345 23.9347 36.7614 24.499 36.7513 25.0832C36.2049 33.0459 30.367 39.699 22.4224 41.413C14.4778 43.127 6.33365 39.4905 2.43284 32.4873C1.28583 30.4702 0.561006 28.2488 0.300905 25.9532C0.200025 25.273 0.155856 24.5858 0.168838 23.8985C0.195131 15.4314 6.22345 8.12307 14.6584 6.33232C15.6795 6.14119 16.7033 6.65102 17.1488 7.5725C17.2597 7.73971 17.3485 7.9201 17.413 8.1093C17.5711 10.5501 17.7351 12.9677 17.8984 15.3752C18.0274 17.2765 18.156 19.1715 18.2808 21.0665C18.2744 21.5129 18.3445 21.9571 18.4884 22.3807C18.8269 23.2141 19.6695 23.7428 20.5826 23.6949Z" fill="white"/>
</svg>
