<svg width="24" height="22" viewBox="0 0 24 22" fill="none" xmlns="http://www.w3.org/2000/svg">
<path fill-rule="evenodd" clip-rule="evenodd" d="M14.7485 0.175094C14.4883 0.140452 14.2268 0.211903 14.0189 0.36563C13.8051 0.521523 13.6715 0.746702 13.6424 0.998946C13.5808 1.50885 13.977 1.97003 14.5254 2.02741C18.3074 2.4193 21.247 5.15501 21.6722 8.67776C21.7291 9.14977 22.1555 9.50594 22.6645 9.50594C22.7028 9.50594 22.74 9.50377 22.7783 9.49944C23.0444 9.47238 23.2814 9.35005 23.4487 9.15518C23.6149 8.96031 23.6904 8.71781 23.6602 8.4699C23.1304 4.07458 19.4669 0.663343 14.7485 0.175094ZM14.8212 3.94725C14.2658 3.85199 13.7557 4.18109 13.65 4.6845C13.5442 5.1879 13.8998 5.6794 14.4401 5.77791C16.0667 6.07238 17.3227 7.24158 17.6411 8.7572V8.75828C17.7317 9.19457 18.1453 9.51177 18.6217 9.51177C18.6856 9.51177 18.7495 9.50635 18.8146 9.49553C19.3548 9.39485 19.7104 8.90443 19.6046 8.39995C19.1294 6.13625 17.253 4.38787 14.8212 3.94725ZM16.6668 14.346C17.1935 14.064 17.7884 13.7455 18.5388 13.8937C19.2185 14.0269 21.5353 15.7731 22.1697 16.3783C22.5857 16.7745 22.8169 17.1837 22.8529 17.5929C22.9157 19.1984 20.5663 21.0312 20.1387 21.2597C19.5706 21.6397 18.9095 21.8313 18.167 21.8313C17.4083 21.8313 16.5625 21.631 15.6399 21.2315C10.6345 19.2915 2.98816 12.3315 0.966478 7.71972C0.127597 6.00273 0.121788 4.5867 0.952536 3.52252C1.28367 3.02344 3.17174 0.937293 4.86228 1.00333C5.31193 1.03906 5.7488 1.25341 6.17753 1.64314C6.82587 2.23315 8.65932 4.39075 8.80107 5.02407C8.95792 5.72775 8.61401 6.28745 8.30843 6.77895C8.24325 6.8846 8.15544 7.00999 8.05923 7.14735C7.69411 7.66868 7.20812 8.36257 7.38008 8.80555C8.61285 11.616 11.4606 14.068 14.4885 15.2199C14.9567 15.3779 15.7036 14.9234 16.2632 14.5829C16.409 14.4941 16.5421 14.4132 16.6543 14.3527L16.6668 14.346Z" fill="white"/>
</svg>
