<svg width="18" height="18" viewBox="0 0 18 18" fill="none" xmlns="http://www.w3.org/2000/svg">
<path d="M18 9.00004C18 8.43458 17.9469 7.8686 17.8419 7.31911C17.7945 7.07038 17.5767 6.89062 17.3238 6.89062H9.03516C8.74368 6.89062 8.50781 7.12649 8.50781 7.41797V10.582C8.50781 10.8735 8.74368 11.1094 9.03516 11.1094H13.2879C13.0229 11.6458 12.6578 12.1112 12.229 12.5028L15.2095 15.4833C16.9245 13.8495 18 11.5502 18 9.00004Z" fill="white"/>
<path d="M9.00001 4.21875C10.0346 4.21875 11.0187 4.54732 11.8458 5.16941C12.0549 5.32649 12.35 5.30743 12.5354 5.12047L14.7858 2.86998C14.8904 2.76543 14.9465 2.62174 14.9398 2.47395C14.9332 2.32615 14.8652 2.18812 14.7519 2.09285C13.1415 0.743133 11.0986 0 9.00001 0C5.91157 0 3.18312 1.56987 1.57019 3.95339L4.66563 7.04883C5.40412 5.38538 7.06567 4.21875 9.00001 4.21875Z" fill="white"/>
<path d="M9.00001 18C11.0132 18 12.8669 17.325 14.3649 16.2005L11.3284 13.164C10.6344 13.5548 9.84112 13.7812 9.00001 13.7812C7.06567 13.7812 5.40412 12.6146 4.66563 10.9512L1.57019 14.0466C3.18312 16.4301 5.91157 18 9.00001 18Z" fill="white"/>
<path d="M4.29553 9.75979C4.25514 9.51092 4.21875 9.26029 4.21875 9.00024C4.21875 8.74019 4.25514 8.48956 4.29553 8.24069L0.986484 4.93164C0.360422 6.15437 0 7.53479 0 9.00024C0 10.4657 0.360422 11.8461 0.98652 13.0688L4.29553 9.75979Z" fill="white"/>
</svg>
