<svg width="20" height="20" viewBox="0 0 20 20" fill="none" xmlns="http://www.w3.org/2000/svg">
<path fill-rule="evenodd" clip-rule="evenodd" d="M8.70466 1.51899C8.03432 1.51899 7.46404 1.98481 7.30396 2.61265H12.6866C12.5266 1.98481 11.9563 1.51899 11.2859 1.51899H8.70466ZM14.2073 2.61264H16.1883C18.2894 2.61264 20.0002 4.34428 20.0002 6.47085C20.0002 6.47085 19.9402 7.3711 19.9202 8.62477C19.9182 8.72401 19.8702 8.82122 19.7911 8.87995C19.3099 9.2354 18.8697 9.52907 18.8297 9.54932C17.1688 10.6632 15.2389 11.447 13.1828 11.8369C13.0488 11.8632 12.9167 11.7934 12.8487 11.6739C12.2724 10.6754 11.1958 10.0253 9.99524 10.0253C8.80264 10.0253 7.7161 10.6683 7.12281 11.6678C7.05377 11.7853 6.92371 11.8531 6.79064 11.8278C4.75162 11.4369 2.82165 10.6541 1.17083 9.55944L0.210349 8.89109C0.130309 8.84046 0.0802842 8.74932 0.0802842 8.64806C0.0502692 8.1316 0.000244141 6.47085 0.000244141 6.47085C0.000244141 4.34428 1.7111 2.61264 3.81215 2.61264H5.78314C5.97323 1.1443 7.20385 0 8.7046 0H11.2859C12.7866 0 14.0173 1.1443 14.2073 2.61264ZM19.6599 10.8152L19.6199 10.8355C17.5988 12.1924 15.1676 13.0937 12.6164 13.4684C12.2562 13.519 11.896 13.2861 11.7959 12.9215C11.5758 12.0912 10.8655 11.5443 10.0151 11.5443H10.005H9.98504C9.13461 11.5443 8.42426 12.0912 8.20415 12.9215C8.1041 13.2861 7.74392 13.519 7.38374 13.4684C4.83246 13.0937 2.40125 12.1924 0.380238 10.8355C0.370233 10.8254 0.270183 10.7646 0.190143 10.8152C0.100098 10.8659 0.100098 10.9874 0.100098 10.9874L0.170133 16.1519C0.170133 18.2785 1.87098 20 3.97203 20H16.0181C18.1191 20 19.82 18.2785 19.82 16.1519L19.9 10.9874C19.9 10.9874 19.9 10.8659 19.8099 10.8152C19.7599 10.7849 19.6999 10.795 19.6599 10.8152ZM10.7456 15.0582C10.7456 15.4836 10.4155 15.8177 9.99525 15.8177C9.58504 15.8177 9.24487 15.4836 9.24487 15.0582V13.7519C9.24487 13.3367 9.58504 12.9924 9.99525 12.9924C10.4155 12.9924 10.7456 13.3367 10.7456 13.7519V15.0582Z" fill="black"/>
</svg>
