<svg width="80" height="80" viewBox="0 0 80 80" fill="none" xmlns="http://www.w3.org/2000/svg">
<path d="M75.8308 47.9248C78.4414 46.128 80 43.1653 80 40C80 36.8347 78.4414 33.872 75.8309 32.0752C74.8155 31.3761 74.463 30.0608 74.993 28.9477C76.3553 26.0863 76.2237 22.7413 74.6411 20C73.0583 17.2589 70.2273 15.4725 67.0681 15.2214C65.8392 15.1237 64.8763 14.1609 64.7788 12.9319C64.5273 9.7725 62.7409 6.94156 60 5.35891C57.2586 3.77609 53.9136 3.64484 51.0525 5.00703C49.9394 5.53719 48.6241 5.18469 47.925 4.16906C46.128 1.55859 43.1652 0 40 0C36.8348 0 33.872 1.55859 32.0752 4.16906C31.3759 5.18469 30.0603 5.53687 28.9477 5.00703C26.0864 3.645 22.7416 3.77625 20.0002 5.35891C17.2591 6.94141 15.4727 9.77234 15.2216 12.932C15.1239 14.1609 14.1611 15.1237 12.9322 15.2214C9.77281 15.4725 6.94172 17.2589 5.35891 20C3.77625 22.7413 3.64484 26.0863 5.00703 28.9477C5.53687 30.0608 5.18453 31.3761 4.16922 32.0752C1.55859 33.872 0 36.8347 0 40C0 43.1653 1.55859 46.128 4.16906 47.9248C5.18453 48.6239 5.53703 49.9392 5.00703 51.0523C3.64469 53.9137 3.77625 57.2588 5.35891 60C6.94172 62.7412 9.77266 64.5275 12.9319 64.7786C14.1608 64.8763 15.1237 65.8391 15.2213 67.0681C15.4725 70.2277 17.2589 73.0586 19.9998 74.6409C22.7409 76.2237 26.0861 76.3552 28.9473 74.9928C30.0608 74.4631 31.3758 74.8153 32.0748 75.8308C33.872 78.4414 36.8348 80 40 80C43.1652 80 46.128 78.4414 47.9248 75.8309C48.6241 74.8155 49.9397 74.4631 51.0523 74.993C52.3105 75.5919 53.7114 75.9159 55.1033 75.9302H55.1155C55.7556 75.9302 56.2778 75.4145 56.2842 74.7728C56.2908 74.1272 55.7725 73.5984 55.127 73.592C54.0725 73.5814 53.0111 73.3358 52.0575 72.8819C49.9012 71.855 47.3531 72.538 45.9989 74.5053C44.6383 76.4819 42.3958 77.662 40.0002 77.662C37.6045 77.662 35.362 76.4819 34.0014 74.5053C32.6473 72.5381 30.0994 71.8552 27.9428 72.8819C25.7763 73.9134 23.2441 73.8141 21.1695 72.6161C19.095 71.4184 17.7428 69.2753 17.5527 66.8831C17.3636 64.5023 15.4984 62.6369 13.1173 62.4477C10.7253 62.2577 8.58203 60.9056 7.38422 58.8309C6.18641 56.7563 6.08719 54.2241 7.11859 52.0575C8.14531 49.9011 7.4625 47.353 5.49516 45.9989C3.51859 44.6384 2.33844 42.3958 2.33844 40.0002C2.33844 37.6045 3.51859 35.3619 5.49531 34.0014C7.4625 32.6473 8.14516 30.0992 7.11859 27.9428C6.08719 25.7763 6.18656 23.2441 7.38422 21.1694C8.58219 19.0947 10.7253 17.7427 13.1173 17.5527C15.4983 17.3636 17.3636 15.4983 17.5527 13.1175C17.7428 10.7253 19.0948 8.58203 21.1695 7.38422C23.2439 6.18656 25.7763 6.08703 27.9428 7.11859C30.0995 8.14531 32.6473 7.46234 34.0014 5.49516C35.362 3.51859 37.6045 2.33844 40.0002 2.33844C42.3958 2.33844 44.6383 3.51859 45.9989 5.49516C47.353 7.46219 49.9009 8.14531 52.0575 7.11859C54.2242 6.08703 56.7562 6.18656 58.8308 7.38422C60.9053 8.58203 62.2575 10.7252 62.4477 13.1173C62.6367 15.4981 64.502 17.3636 66.883 17.5527C69.275 17.7427 71.4183 19.0948 72.6161 21.1694C73.8139 23.2441 73.9131 25.7763 72.8817 27.9428C71.855 30.0992 72.5378 32.6473 74.5052 34.0014C76.4817 35.3619 77.6619 37.6045 77.6619 40.0002C77.6619 42.3958 76.4817 44.6384 74.505 45.9989C72.5378 47.353 71.8552 49.9011 72.8817 52.0575C73.9131 54.2241 73.8138 56.7563 72.6161 58.8309C71.4181 60.9056 69.275 62.2577 66.883 62.4477C64.5019 62.6369 62.6367 64.5022 62.4477 66.883C62.2812 68.9775 61.2252 70.8947 59.5502 72.143C59.0323 72.5287 58.9253 73.2614 59.3113 73.7791C59.697 74.2967 60.4295 74.4036 60.9473 74.0178C63.1623 72.367 64.5589 69.8341 64.7788 67.068C64.8764 65.8391 65.8392 64.8763 67.0681 64.7786C70.2273 64.5277 73.0584 62.7412 74.6411 60C76.2237 57.2588 76.3552 53.9137 74.993 51.0523C74.463 49.9392 74.8153 48.6239 75.8308 47.9248Z" fill="white"/>
<path d="M16.1007 42.9175C15.4549 42.9175 14.9316 43.4409 14.9316 44.0867V54.3881C14.9316 55.2597 15.6407 55.9687 16.5123 55.9687H26.9241L29.6104 57.5587C33.4012 59.8025 37.7335 60.9884 42.1388 60.9884H55.2316C57.9616 60.9884 60.1827 58.7673 60.1827 56.0375C60.1827 55.0022 59.8634 54.0401 59.3179 53.2447C61.4063 52.6637 62.9432 50.745 62.9432 48.4739C62.9432 47.3623 62.5749 46.3351 61.9541 45.508C63.7774 44.777 65.0684 42.9914 65.0684 40.9101C65.0684 38.8298 63.7787 37.0451 61.9569 36.3134C62.6348 35.4122 62.9809 34.3156 62.9401 33.1669C62.8465 30.5359 60.5862 28.3955 57.9015 28.3955H49.1507C48.8699 28.3955 48.6146 28.2645 48.4501 28.0359C48.2884 27.8111 48.2457 27.5325 48.333 27.2719C48.8016 25.8737 49.1188 24.5251 49.2762 23.2631C49.5577 21.0012 48.8524 18.7226 47.341 17.0115C45.8235 15.2934 43.6385 14.308 41.3463 14.308C39.9066 14.308 38.6162 15.1687 38.0588 16.5009C38.059 16.5011 38.0587 16.5009 38.0587 16.5012C37.8741 16.942 37.7805 17.4095 37.7805 17.8906C37.7799 23.4555 35.9802 27.8419 32.4318 30.9278C29.9945 33.0475 27.511 33.8114 27.0741 33.934H16.5126C15.641 33.934 14.932 34.6431 14.932 35.5145V38.6956C14.932 39.3412 15.4552 39.8647 16.101 39.8647C16.7468 39.8647 17.2701 39.3412 17.2701 38.6956V36.2722H26.1107V53.6303H17.2701V44.0865C17.2699 43.4409 16.7465 42.9175 16.1007 42.9175ZM28.4488 35.947C29.6121 35.5323 31.7437 34.5984 33.8751 32.7706C36.7227 30.3284 40.1176 25.7644 40.1185 17.8906C40.1185 17.7211 40.151 17.5572 40.2154 17.4039C40.2154 17.4039 40.2155 17.4037 40.2155 17.4036C40.408 16.9434 40.8518 16.6459 41.3462 16.6459C42.9682 16.6459 44.5145 17.3433 45.5884 18.559C46.6562 19.768 47.1545 21.3772 46.9557 22.9739C46.8176 24.0817 46.5351 25.2776 46.1159 26.5286C45.7866 27.5114 45.9455 28.5584 46.5521 29.4014C47.1523 30.2355 48.1235 30.7334 49.1505 30.7334H57.9013C59.3418 30.7334 60.5538 31.8622 60.6032 33.2497C60.6287 33.967 60.369 34.6456 59.8724 35.1603C59.3754 35.6753 58.7077 35.9589 57.9923 35.9589H54.7444C54.0987 35.9589 53.5754 36.4823 53.5754 37.1281C53.5754 37.7737 54.0988 38.2972 54.7444 38.2972H60.1174C61.5581 38.2972 62.7301 39.4692 62.7301 40.9098C62.7301 42.3505 61.5581 43.5225 60.1174 43.5225H53.1135C52.4677 43.5225 51.9445 44.0459 51.9445 44.6917C51.9445 45.3375 52.4677 45.8608 53.1135 45.8608H57.9923C59.433 45.8608 60.6051 47.0328 60.6051 48.4736C60.6051 49.9142 59.433 51.0862 57.9923 51.0862H52.1373C51.4915 51.0862 50.9682 51.6097 50.9682 52.2553C50.9682 52.9009 51.4915 53.4245 52.1373 53.4245H55.2316C56.6724 53.4245 57.8444 54.5965 57.8444 56.0372C57.8444 57.4778 56.6724 58.6498 55.2316 58.6498H42.1388C38.1524 58.6498 34.2318 57.5765 30.8015 55.5462L28.4488 54.1537V35.947Z" fill="white"/>
</svg>
