<svg width="27" height="25" viewBox="0 0 27 25" fill="none" xmlns="http://www.w3.org/2000/svg">
<path d="M25.5026 6.54983L26.2328 5.86664L26.2328 5.86664L25.5026 6.54983ZM25.9582 8.46557L24.971 8.30598L24.9701 8.31162L25.9582 8.46557ZM24.8191 15.7764L23.831 15.6224L23.8307 15.6246L24.8191 15.7764ZM5.65804 15.6103L6.65405 15.521L6.65394 15.5199L5.65804 15.6103ZM4.5549 3.4617L5.5508 3.37127L5.48051 2.5971L4.71292 2.47426L4.5549 3.4617ZM2.74431 3.17194L2.58377 4.15897L2.58629 4.15938L2.74431 3.17194ZM2.01288 2.21352L2.99562 2.39855L2.99635 2.39462L2.01288 2.21352ZM3.05607 1.52367L3.19462 0.533316L3.19305 0.533098L3.05607 1.52367ZM5.91584 1.92376L6.08032 0.937379L6.06738 0.935221L6.05439 0.933404L5.91584 1.92376ZM6.65926 2.68158L7.65513 2.5907L7.65478 2.58707L6.65926 2.68158ZM6.88708 5.17795L5.89118 5.26884L5.8921 5.278L6.88708 5.17795ZM26.2328 5.86664C25.9306 5.54365 25.587 5.26437 25.1634 5.07297C24.7371 4.88033 24.2885 4.80315 23.8119 4.80315V6.80315C24.0667 6.80315 24.2236 6.843 24.3399 6.89553C24.4589 6.94931 24.5949 7.04337 24.7723 7.23303L26.2328 5.86664ZM26.9454 8.62516C27.078 7.80487 27.011 6.69835 26.2328 5.86664L24.7723 7.23303C24.9534 7.42661 25.0543 7.79116 24.971 8.30598L26.9454 8.62516ZM25.8072 15.9303L26.9463 8.61953L24.9701 8.31162L23.831 15.6224L25.8072 15.9303ZM21.7855 19.217C23.7436 19.217 25.5082 17.877 25.8075 15.9282L23.8307 15.6246C23.6983 16.4864 22.873 17.217 21.7855 17.217V19.217ZM8.70367 19.217H21.7855V17.217H8.70367V19.217ZM4.66204 15.6996C4.84522 17.7427 6.64986 19.217 8.70367 19.217V17.217C7.56796 17.217 6.73466 16.4201 6.65404 15.521L4.66204 15.6996ZM3.559 3.55213L4.66214 15.7007L6.65394 15.5199L5.5508 3.37127L3.559 3.55213ZM2.58629 4.15938L4.39688 4.44913L4.71292 2.47426L2.90233 2.18451L2.58629 4.15938ZM1.03015 2.02848C0.827697 3.10371 1.63012 4.00386 2.58377 4.15897L2.90485 2.18491C2.91973 2.18733 2.94128 2.19665 2.9611 2.22251C2.98216 2.25001 3.01155 2.31392 2.99561 2.39855L1.03015 2.02848ZM3.19305 0.533098C2.25515 0.403404 1.22481 0.971348 1.02942 2.03242L2.99635 2.39462C2.9837 2.46326 2.9447 2.49873 2.9304 2.50812C2.91798 2.51628 2.91432 2.51359 2.91909 2.51425L3.19305 0.533098ZM6.05439 0.933404L3.19462 0.533317L2.91752 2.51403L5.77729 2.91411L6.05439 0.933404ZM7.65478 2.58707C7.57234 1.71864 6.89611 1.07341 6.08032 0.937379L5.75136 2.91014C5.74924 2.90979 5.73196 2.90571 5.71133 2.88457C5.69039 2.86312 5.66842 2.82545 5.66374 2.77609L7.65478 2.58707ZM7.88294 5.08706L7.65512 2.5907L5.6634 2.77247L5.89122 5.26883L7.88294 5.08706ZM7.61851 4.80315C7.69819 4.80315 7.86179 4.87626 7.88206 5.0779L5.8921 5.278C5.98432 6.19511 6.77143 6.80315 7.61851 6.80315V4.80315ZM23.8119 4.80315H7.61851V6.80315H23.8119V4.80315ZM7.68896 21.672C7.68896 21.3559 7.98641 20.9781 8.51161 20.9781V18.9781C7.0223 18.9781 5.68896 20.1159 5.68896 21.672H7.68896ZM8.51161 22.3548C7.98197 22.3548 7.68896 21.9729 7.68896 21.672H5.68896C5.68896 23.2211 7.02675 24.3548 8.51161 24.3548V22.3548ZM9.32227 21.672C9.32227 21.977 9.02482 22.3548 8.51161 22.3548V24.3548C9.98893 24.3548 11.3223 23.217 11.3223 21.672H9.32227ZM8.51161 20.9781C9.02038 20.9781 9.32227 21.3517 9.32227 21.672H11.3223C11.3223 20.12 9.99336 18.9781 8.51161 18.9781V20.9781ZM21.1785 21.672C21.1785 21.3559 21.4759 20.9781 22.0011 20.9781V18.9781C20.5118 18.9781 19.1785 20.1159 19.1785 21.672H21.1785ZM22.0011 22.3548C21.4715 22.3548 21.1785 21.9729 21.1785 21.672H19.1785C19.1785 23.2211 20.5162 24.3548 22.0011 24.3548V22.3548ZM22.8118 21.672C22.8118 21.977 22.5143 22.3548 22.0011 22.3548V24.3548C23.4784 24.3548 24.8118 23.217 24.8118 21.672H22.8118ZM22.0011 20.9781C22.5099 20.9781 22.8118 21.3517 22.8118 21.672H24.8118C24.8118 20.12 23.4829 18.9781 22.0011 18.9781V20.9781Z" fill="black"/>
</svg>
