<svg width="24" height="24" viewBox="0 0 24 24" fill="none" xmlns="http://www.w3.org/2000/svg">
<path d="M17.1073 3.89209L16.399 4.59799L17.1073 3.89209ZM22.5248 20.4659L21.8995 21.2462L22.1736 21.4659H22.5248V20.4659ZM19.7147 18.2139L19.0126 18.926L19.0492 18.9621L19.0893 18.9943L19.7147 18.2139ZM22.5736 20.4659L23.2819 19.76L22.9888 19.4659H22.5736V20.4659ZM22.5736 22.5319L21.8653 21.826L21.8653 21.826L22.5736 22.5319ZM20.5148 22.5319L19.7637 23.192L19.7843 23.2155L19.8065 23.2377L20.5148 22.5319ZM18.1828 19.8784L18.9339 19.2183L18.9126 19.1941L18.8899 19.1713L18.1828 19.8784ZM18.1828 18.2139L17.4806 17.5018L17.4757 17.5068L18.1828 18.2139ZM10.4354 0.119049C4.66888 0.119049 0 4.80885 0 10.5868H2C2 5.90697 5.77989 2.11905 10.4354 2.11905V0.119049ZM17.8156 3.1862C15.8588 1.22273 13.2042 0.119049 10.4354 0.119049V2.11905C12.6715 2.11905 14.8167 3.01035 16.399 4.59799L17.8156 3.1862ZM20.8708 10.5868C20.8708 7.81169 19.7722 5.14954 17.8156 3.1862L16.399 4.59799C17.9813 6.18574 18.8708 8.33992 18.8708 10.5868H20.8708ZM10.4354 21.0546C16.202 21.0546 20.8708 16.3648 20.8708 10.5868H18.8708C18.8708 15.2667 15.091 19.0546 10.4354 19.0546V21.0546ZM0 10.5868C0 16.3648 4.66888 21.0546 10.4354 21.0546V19.0546C5.77989 19.0546 2 15.2667 2 10.5868H0ZM23.1502 19.6856L20.34 17.4336L19.0893 18.9943L21.8995 21.2462L23.1502 19.6856ZM22.5736 19.4659H22.5248V21.4659H22.5736V19.4659ZM23.2819 23.2377C24.2394 22.277 24.2394 20.7208 23.2819 19.76L21.8653 21.1718C22.0449 21.352 22.0449 21.6457 21.8653 21.826L23.2819 23.2377ZM19.8065 23.2377C20.7658 24.2004 22.3226 24.2004 23.2819 23.2377L21.8653 21.826C21.6876 22.0043 21.4008 22.0043 21.2231 21.826L19.8065 23.2377ZM17.4316 20.5386L19.7637 23.192L21.2659 21.8717L18.9339 19.2183L17.4316 20.5386ZM16.8384 19.0462C16.8384 19.6232 17.0673 20.1772 17.4757 20.5855L18.8899 19.1713C18.8573 19.1388 18.8384 19.0938 18.8384 19.0462H16.8384ZM17.4757 17.5068C17.0673 17.9152 16.8384 18.4691 16.8384 19.0462H18.8384C18.8384 18.9985 18.8573 18.9536 18.8899 18.921L17.4757 17.5068ZM20.4168 17.5019C19.6023 16.6987 18.2952 16.6987 17.4806 17.5019L18.8849 18.926C18.9207 18.8906 18.9767 18.8906 19.0126 18.926L20.4168 17.5019Z" fill="black"/>
</svg>
