<svg width="18" height="18" viewBox="0 0 18 18" fill="none" xmlns="http://www.w3.org/2000/svg">
<path d="M18 2.13092C17.3306 2.49231 16.6174 2.73185 15.8737 2.84815C16.6388 2.286 17.2226 1.40262 17.4971 0.337846C16.7839 0.861231 15.9964 1.23092 15.1571 1.43723C14.4799 0.549693 13.5146 0 12.4616 0C10.4186 0 8.77387 2.04092 8.77387 4.54292C8.77387 4.90292 8.79862 5.24908 8.85938 5.57862C5.7915 5.39446 3.07687 3.58477 1.25325 0.828C0.934875 1.50785 0.748125 2.286 0.748125 3.12369C0.748125 4.69662 1.40625 6.09092 2.38725 6.89815C1.79437 6.88431 1.21275 6.67246 0.72 6.33877C0.72 6.35262 0.72 6.37062 0.72 6.38862C0.72 8.59569 1.99912 10.4289 3.6765 10.8512C3.37612 10.9523 3.04875 11.0008 2.709 11.0008C2.47275 11.0008 2.23425 10.9842 2.01038 10.9232C2.4885 12.7218 3.84525 14.0442 5.4585 14.0871C4.203 15.2958 2.60888 16.0242 0.883125 16.0242C0.5805 16.0242 0.29025 16.0075 0 15.9618C1.63462 17.2592 3.57188 18 5.661 18C12.4515 18 16.164 11.0769 16.164 5.076C16.164 4.87523 16.1584 4.68139 16.1505 4.48892C16.8829 3.84923 17.4982 3.05031 18 2.13092Z" fill="white"/>
</svg>
