<svg width="24" height="22" viewBox="0 0 24 22" fill="none" xmlns="http://www.w3.org/2000/svg">
<path fill-rule="evenodd" clip-rule="evenodd" d="M17.9268 0C19.536 0 21.084 0.647778 22.2228 1.81011C23.3628 2.97 24 4.53444 24 6.17222V15.8278C24 19.2378 21.276 22 17.9268 22H6.072C2.7228 22 0 19.2378 0 15.8278V6.17222C0 2.76222 2.7108 0 6.072 0H17.9268ZM19.8361 7.99363L19.9321 7.89585C20.2189 7.54141 20.2189 7.02808 19.9189 6.67364C19.7521 6.49153 19.5229 6.3803 19.2841 6.35586C19.0321 6.34242 18.7921 6.42919 18.6109 6.6003L13.2001 11.0003C12.5041 11.5882 11.5069 11.5882 10.8001 11.0003L5.40011 6.6003C5.02691 6.31919 4.51091 6.35586 4.20011 6.68586C3.87611 7.01586 3.84011 7.54141 4.11491 7.90807L4.27211 8.06696L9.7321 12.4058C10.4041 12.9436 11.2189 13.2369 12.0721 13.2369C12.9229 13.2369 13.7521 12.9436 14.4229 12.4058L19.8361 7.99363Z" fill="white"/>
</svg>
