<svg width="50" height="50" viewBox="0 0 50 50" fill="none" xmlns="http://www.w3.org/2000/svg">
<path fill-rule="evenodd" clip-rule="evenodd" d="M37.0185 17.4621H45.8333C45.8333 10.3846 41.5926 6.25 34.4074 6.25H15.5926C8.40737 6.25 4.16663 10.3846 4.16663 17.3718V32.6282C4.16663 39.6154 8.40737 43.75 15.5926 43.75H34.4074C41.5926 43.75 45.8333 39.6154 45.8333 32.6282V31.9782H37.0185C32.9275 31.9782 29.6111 28.7448 29.6111 24.7563C29.6111 20.7677 32.9275 17.5343 37.0185 17.5343V17.4621ZM37.0185 20.5676H44.2777C45.1368 20.5676 45.8333 21.2466 45.8333 22.0842V27.3562C45.8233 28.1897 45.1327 28.8631 44.2777 28.8728H37.1851C35.1141 28.9 33.303 27.5175 32.8333 25.5507C32.598 24.3298 32.9283 23.07 33.7355 22.1088C34.5427 21.1477 35.7444 20.5835 37.0185 20.5676ZM37.3333 26.1104H38.0184C38.898 26.1104 39.611 25.4152 39.611 24.5577C39.611 23.7002 38.898 23.005 38.0184 23.005H37.3333C36.9126 23.0002 36.5074 23.1597 36.2082 23.448C35.909 23.7364 35.7406 24.1295 35.7407 24.5396C35.7406 25.4002 36.4507 26.1005 37.3333 26.1104ZM14.0371 17.4621H25.7963C26.6759 17.4621 27.3889 16.767 27.3889 15.9094C27.3889 15.0519 26.6759 14.3567 25.7963 14.3567H14.0371C13.1647 14.3566 12.4546 15.0409 12.4445 15.8914C12.4444 16.7519 13.1545 17.4522 14.0371 17.4621Z" fill="white"/>
</svg>
