<svg width="18" height="18" viewBox="0 0 18 18" fill="none" xmlns="http://www.w3.org/2000/svg">
<path d="M0.574731 9.5868H4.48072V17.7097C4.48072 17.8701 4.73797 18 5.05545 18H11.6782C11.9957 18 12.2529 17.8701 12.2529 17.7097V9.62506H16.7432C17.0351 9.62506 17.2808 9.51439 17.3141 9.3679L17.9961 6.37746C18.0148 6.29518 17.9632 6.21279 17.8542 6.15106C17.7452 6.08928 17.5891 6.05392 17.4253 6.05392H12.2531V4.17937C12.2531 3.61428 12.8555 3.32774 14.0436 3.32774C14.2129 3.32774 17.4253 3.32774 17.4253 3.32774C17.7428 3.32774 18 3.19773 18 3.03741V0.292471C18 0.132097 17.7428 0.00214839 17.4253 0.00214839H12.7648C12.7319 0.00133548 12.6589 0 12.5513 0C11.7427 0 8.93189 0.080187 6.71159 1.11199C4.25151 2.2554 4.59348 3.62445 4.67521 3.86181V6.05386H0.574731C0.25725 6.05386 0 6.18381 0 6.34419V9.29642C0 9.45679 0.25725 9.5868 0.574731 9.5868Z" fill="white"/>
</svg>
