<svg width="46" height="18" viewBox="0 0 46 18" fill="none" xmlns="http://www.w3.org/2000/svg">
<path d="M23.3537 0.433963C22.7687 0.63384 22.404 1.01391 22.404 1.42729V7.86425H2.33574C1.32241 7.86425 0.5 8.37303 0.5 8.99992C0.5 9.62681 1.32241 10.1356 2.33574 10.1356H22.404V16.5725C22.404 16.9874 22.7687 17.3675 23.3537 17.5659C23.9387 17.7673 24.6534 17.7536 25.2188 17.5341L44.6433 9.96145C45.1769 9.75249 45.5 9.39059 45.5 8.99992C45.5 8.60925 45.1769 8.24735 44.6433 8.03839L25.2188 0.465762C24.9202 0.350681 24.58 0.291626 24.2397 0.291626C23.9362 0.291626 23.6303 0.340081 23.3537 0.433963Z" fill="black"/>
</svg>
