<svg width="42" height="42" viewBox="0 0 42 42" fill="none" xmlns="http://www.w3.org/2000/svg">
<path fill-rule="evenodd" clip-rule="evenodd" d="M0.166748 18.2291C0.166748 8.25353 8.16746 0.166748 18.0368 0.166748C22.7763 0.166748 27.3216 2.06974 30.6729 5.45709C34.0242 8.84443 35.9069 13.4387 35.9069 18.2291C35.9069 28.2047 27.9062 36.2914 18.0368 36.2914C8.16746 36.2914 0.166748 28.2047 0.166748 18.2291ZM35.6112 32.7798L40.9334 37.0759H41.0258C42.1026 38.1643 42.1026 39.9288 41.0258 41.0172C39.9491 42.1055 38.2033 42.1055 37.1266 41.0172L32.7099 35.9552C32.2923 35.5346 32.0576 34.9633 32.0576 34.3675C32.0576 33.7717 32.2923 33.2004 32.7099 32.7798C33.5151 31.98 34.806 31.98 35.6112 32.7798Z" fill="white"/>
</svg>
