<svg width="50" height="50" viewBox="0 0 50 50" fill="none" xmlns="http://www.w3.org/2000/svg">
<path d="M49.9417 13.5663L49.9399 13.5274C49.9144 13.0471 49.8974 12.539 49.8871 11.9736C49.8391 9.21677 47.2656 6.93635 44.0277 6.78223C37.2768 6.46142 32.0544 4.58688 27.5921 0.883196L27.5541 0.852297C26.0986 -0.284099 23.9031 -0.284099 22.4472 0.852297L22.4092 0.883196C17.9469 4.58688 12.7245 6.46142 5.97364 6.78261C2.73617 6.93635 0.162144 9.21677 0.114211 11.974C0.104356 12.5355 0.0868849 13.0437 0.0613508 13.5274L0.058663 13.6178C-0.0725917 19.4798 -0.235652 26.7754 2.63045 33.3973C4.2064 37.0388 6.59318 40.2043 9.72403 42.8063C13.2899 45.7695 17.9604 48.122 23.6057 49.7982C23.7893 49.8528 23.9802 49.897 24.1746 49.9302C24.4487 49.9767 24.7247 50 25.0006 50C25.2766 50 25.553 49.9767 25.8267 49.9302C26.0211 49.897 26.2133 49.8524 26.3979 49.7974C32.0364 48.1182 36.702 45.7645 40.2647 42.8017C43.3942 40.1989 45.781 37.0327 47.3583 33.3905C50.2352 26.7487 50.0725 19.4394 49.9417 13.5663ZM44.1258 32.3754C41.1029 39.3547 34.9321 44.1479 25.2609 47.028C25.2264 47.0379 25.1897 47.0467 25.1516 47.0532C25.0517 47.0699 24.95 47.0699 24.8488 47.0528C24.8112 47.0463 24.7744 47.0379 24.7404 47.028C15.0589 44.1532 8.88409 39.3627 5.86344 32.383C3.22177 26.2791 3.37139 19.582 3.50354 13.6739L3.50444 13.641C3.53131 13.1333 3.54923 12.6015 3.55909 12.0171C3.58059 10.793 4.7256 9.7802 6.16582 9.71192C9.98609 9.53034 13.3423 8.90167 16.4261 7.79007C19.5059 6.68 22.2412 5.11521 24.7874 3.00645C24.9169 2.91337 25.0849 2.91299 25.2139 3.00645C27.7606 5.11521 30.4959 6.68 33.5752 7.79007C36.659 8.90167 40.0152 9.53034 43.8359 9.71192C45.2761 9.7802 46.4212 10.793 46.4422 12.0175C46.4525 12.605 46.4704 13.1367 46.4973 13.641C46.629 19.5561 46.775 26.2585 44.1258 32.3754Z" fill="white"/>
<path d="M24.9998 12.5401C16.9309 12.5401 10.3668 18.1302 10.3668 25.0009C10.3668 31.8719 16.9309 37.462 24.9998 37.462C33.0681 37.462 39.6327 31.8719 39.6327 25.0009C39.6327 18.1302 33.0681 12.5401 24.9998 12.5401ZM24.9998 34.5277C18.8308 34.5277 13.8122 30.2541 13.8122 25.0009C13.8122 19.7476 18.8308 15.474 24.9998 15.474C31.1683 15.474 36.1869 19.7476 36.1869 25.0009C36.1869 30.2541 31.1683 34.5277 24.9998 34.5277Z" fill="white"/>
<path d="M29.2053 21.1324L22.4087 26.9201L20.564 25.3492C19.8911 24.7762 18.8003 24.7762 18.1275 25.3492C17.4551 25.9221 17.4551 26.851 18.1275 27.4236L21.1907 30.0321C21.5271 30.3186 21.9679 30.4616 22.4087 30.4616C22.8495 30.4616 23.2903 30.3186 23.6267 30.0321L31.6418 23.2068C32.3142 22.6339 32.3142 21.705 31.6418 21.1324C30.969 20.559 29.8782 20.559 29.2053 21.1324Z" fill="white"/>
</svg>
