<svg width="18" height="18" viewBox="0 0 18 18" fill="none" xmlns="http://www.w3.org/2000/svg">
<path d="M13.1276 0H4.87244C2.18573 0 0 2.18573 0 4.87244V13.1277C0 15.8143 2.18573 18 4.87244 18H13.1277C15.8143 18 18 15.8143 18 13.1277V4.87244C18 2.18573 15.8143 0 13.1276 0V0ZM9 13.9217C6.2861 13.9217 4.07826 11.7139 4.07826 9C4.07826 6.2861 6.2861 4.07826 9 4.07826C11.7139 4.07826 13.9217 6.2861 13.9217 9C13.9217 11.7139 11.7139 13.9217 9 13.9217ZM14.0394 5.23897C13.2374 5.23897 12.5851 4.58665 12.5851 3.78465C12.5851 2.98265 13.2374 2.3302 14.0394 2.3302C14.8414 2.3302 15.4939 2.98265 15.4939 3.78465C15.4939 4.58665 14.8414 5.23897 14.0394 5.23897Z" fill="white"/>
<path d="M9.00005 5.1333C6.86815 5.1333 5.13354 6.86777 5.13354 8.9998C5.13354 11.1317 6.86815 12.8663 9.00005 12.8663C11.1321 12.8663 12.8665 11.1317 12.8665 8.9998C12.8665 6.86777 11.1321 5.1333 9.00005 5.1333Z" fill="white"/>
<path d="M14.0395 3.38574C13.8195 3.38574 13.6404 3.56482 13.6404 3.78482C13.6404 4.00482 13.8195 4.1839 14.0395 4.1839C14.2596 4.1839 14.4387 4.00496 14.4387 3.78482C14.4387 3.56468 14.2596 3.38574 14.0395 3.38574Z" fill="white"/>
</svg>
