<svg width="50" height="50" viewBox="0 0 50 50" fill="none" xmlns="http://www.w3.org/2000/svg">
<path fill-rule="evenodd" clip-rule="evenodd" d="M42.0345 12.3489C43.3043 12.3489 44.137 12.7954 44.9697 13.7734C45.8024 14.7514 45.9481 16.1546 45.7608 17.4281L43.7831 31.375C43.4084 34.056 41.1602 36.0311 38.5164 36.0311H15.8049C13.0363 36.0311 10.7464 33.8646 10.5174 31.0582L8.60222 7.88205L5.45883 7.32927C4.62615 7.18045 4.04327 6.35129 4.18899 5.50086C4.33471 4.6313 5.14658 4.05514 6.00008 4.18483L10.965 4.94809C11.6727 5.07778 12.1932 5.67095 12.2556 6.39381L12.6511 11.1562C12.7136 11.8386 13.2548 12.3489 13.921 12.3489H42.0345ZM15.4714 39.3913C13.7228 39.3913 12.3072 40.837 12.3072 42.6229C12.3072 44.3876 13.7228 45.8333 15.4714 45.8333C17.1992 45.8333 18.6148 44.3876 18.6148 42.6229C18.6148 40.837 17.1992 39.3913 15.4714 39.3913ZM38.8906 39.3913C37.142 39.3913 35.7264 40.837 35.7264 42.6229C35.7264 44.3876 37.142 45.8333 38.8906 45.8333C40.6185 45.8333 42.034 44.3876 42.034 42.6229C42.034 40.837 40.6185 39.3913 38.8906 39.3913Z" fill="white"/>
</svg>
